<svg width="48" height="48" viewBox="0 0 48 48" fill="none" xmlns="http://www.w3.org/2000/svg">
<path fill-rule="evenodd" clip-rule="evenodd" d="M0 24C0 10.7452 10.7452 0 24 0V0C37.2548 0 48 10.7452 48 24V24C48 37.2548 37.2548 48 24 48V48C10.7452 48 0 37.2548 0 24V24Z" fill="white"/>
<path d="M31.18 31.1999V31.6999H31.68H32.64C32.762 31.6999 32.879 31.7484 32.9653 31.8347L33.3188 31.4811L32.9653 31.8347C33.0516 31.9209 33.1 32.0379 33.1 32.1599C33.1 32.2819 33.0516 32.3989 32.9653 32.4852L33.3188 32.8387L32.9653 32.4852C32.879 32.5715 32.762 32.6199 32.64 32.6199H15.36C15.238 32.6199 15.121 32.5715 15.0348 32.4852C14.9485 32.3989 14.9 32.2819 14.9 32.1599C14.9 32.0379 14.9485 31.9209 15.0348 31.8347C15.121 31.7484 15.238 31.6999 15.36 31.6999H16.32H16.82V31.1999V14.8799C16.82 14.7579 16.8685 14.6409 16.9548 14.5547C17.041 14.4684 17.158 14.4199 17.28 14.4199H30.72C30.842 14.4199 30.959 14.4684 31.0453 14.5547C31.1316 14.6409 31.18 14.7579 31.18 14.8799V31.1999ZM24.96 31.6999H25.46V31.1999V27.3599V26.8599H24.96H23.04H22.54V27.3599V31.1999V31.6999H23.04H24.96ZM29.76 31.6999H30.26V31.1999V15.8399V15.3399H29.76H18.24H17.74V15.8399V31.1999V31.6999H18.24H21.12H21.62V31.1999V26.3999C21.62 26.2779 21.6685 26.1609 21.7548 26.0747C21.841 25.9884 21.958 25.9399 22.08 25.9399H25.92C26.042 25.9399 26.159 25.9884 26.2453 26.0747C26.3316 26.1609 26.38 26.2779 26.38 26.3999V31.1999V31.6999H26.88H29.76ZM26.88 19.1799H25.92C25.798 19.1799 25.681 19.1315 25.5948 19.0452C25.5085 18.9589 25.46 18.8419 25.46 18.7199C25.46 18.5979 25.5085 18.4809 25.5948 18.3947C25.681 18.3084 25.798 18.2599 25.92 18.2599H26.88C27.002 18.2599 27.119 18.3084 27.2053 18.3947C27.2916 18.4809 27.34 18.5979 27.34 18.7199C27.34 18.8419 27.2916 18.9589 27.2053 19.0452C27.119 19.1315 27.002 19.1799 26.88 19.1799ZM26.88 23.0199H25.92C25.798 23.0199 25.681 22.9715 25.5948 22.8852C25.5085 22.7989 25.46 22.6819 25.46 22.5599C25.46 22.4379 25.5085 22.3209 25.5948 22.2347C25.681 22.1484 25.798 22.0999 25.92 22.0999H26.88C27.002 22.0999 27.119 22.1484 27.2053 22.2347C27.2916 22.3209 27.34 22.4379 27.34 22.5599C27.34 22.6819 27.2916 22.7989 27.2053 22.8852C27.119 22.9715 27.002 23.0199 26.88 23.0199ZM22.08 19.1799H21.12C20.998 19.1799 20.881 19.1315 20.7948 19.0452C20.7085 18.9589 20.66 18.8419 20.66 18.7199C20.66 18.5979 20.7085 18.4809 20.7948 18.3947C20.881 18.3084 20.998 18.2599 21.12 18.2599H22.08C22.202 18.2599 22.319 18.3084 22.4053 18.3947C22.4916 18.4809 22.54 18.5979 22.54 18.7199C22.54 18.8419 22.4916 18.9589 22.4053 19.0452C22.319 19.1315 22.202 19.1799 22.08 19.1799ZM22.08 23.0199H21.12C20.998 23.0199 20.881 22.9715 20.7948 22.8852C20.7085 22.7989 20.66 22.6819 20.66 22.5599C20.66 22.4379 20.7085 22.3209 20.7948 22.2347C20.881 22.1484 20.998 22.0999 21.12 22.0999H22.08C22.202 22.0999 22.319 22.1484 22.4053 22.2347C22.4916 22.3209 22.54 22.4379 22.54 22.5599C22.54 22.6819 22.4916 22.7989 22.4053 22.8852C22.319 22.9715 22.202 23.0199 22.08 23.0199Z" fill="#121224" stroke="#121224"/>
</svg>
